<?xml version="1.0" encoding="UTF-8"?>
<svg version="1.1" xmlns="http://www.w3.org/2000/svg" width="512" height="512">
<path d="M0 0 C2.16146399 1.74419295 3.79547867 3.63897258 5.5859375 5.7578125 C9.94325232 10.50559953 14.57973227 10.79087307 20.66650391 11.63476562 C33.92091825 13.50543028 43.09414084 21.23416547 51.1484375 31.6953125 C56.88313787 39.93603031 61.44271017 49.26505109 65.0234375 58.6328125 C65.84585937 58.3440625 66.66828125 58.0553125 67.515625 57.7578125 C81.32827141 53.16423032 81.32827141 53.16423032 88.0234375 54.6328125 C93.10195906 57.86048918 96.862725 62.58311932 100.5703125 67.2421875 C109.32047584 77.82978292 116.54889446 85.40832461 130.71844482 87.00405884 C136.89881018 87.52585633 143.12848149 87.69860254 149.3291626 87.53590393 C153.93266369 87.44067564 157.80805645 87.70698893 162.0234375 89.6328125 C164.27015164 95.58145531 164.93273103 101.92032522 165.83583069 108.18753052 C166.0067822 109.34695282 166.17773371 110.50637512 166.35386556 111.70093143 C166.82568644 114.90751783 167.29324238 118.1146923 167.75898588 121.32216597 C168.26350732 124.7893256 168.77355782 128.25567228 169.28292847 131.72212219 C170.16613896 137.73791199 171.04586299 143.75420334 171.92323494 149.77084732 C173.20145711 158.5362533 174.48507686 167.30086238 175.7699632 176.06529365 C177.86751741 190.37404293 179.96085903 204.68340518 182.05151367 218.99316406 C184.05991778 232.73987836 186.0700385 246.48633955 188.08276367 260.23242188 C188.26700377 261.49071344 188.26700377 261.49071344 188.4549659 262.77442504 C189.19540602 267.83123971 189.93591961 272.88804362 190.67645784 277.94484392 C191.77417927 285.44074465 192.87179673 292.9366606 193.96934509 300.43258667 C194.08840837 301.24573931 194.20747165 302.05889195 194.33014291 302.89668559 C195.9443851 313.92157689 197.55734244 324.94665536 199.16908696 335.97191207 C199.49785151 338.22066992 199.82669223 340.46941661 200.15556031 342.71815932 C200.37235144 344.20057383 200.58914138 345.68298851 200.80593014 347.16540337 C200.91246149 347.89386194 201.01899284 348.62232051 201.12875241 349.37285358 C201.76089981 353.69602997 202.39234332 358.01930849 203.02327644 362.34266225 C205.10259117 376.58850816 207.19687982 390.83185349 209.33216063 405.069429 C209.97188862 409.33828634 210.60887066 413.60755467 211.24605979 417.87679162 C211.74820486 421.23850471 212.25267529 424.59983585 212.76253331 427.96038842 C213.31804447 431.6268106 213.86660236 435.29421333 214.4138031 438.96188354 C214.66039455 440.56856529 214.66039455 440.56856529 214.91196764 442.20770526 C215.73215296 447.75329351 216.19587578 453.02685941 216.0234375 458.6328125 C197.46501217 462.65792778 178.90648741 466.68258436 160.34784412 470.7066946 C151.73079086 472.57515986 143.11377023 474.44377531 134.49682617 476.31274414 C126.98648012 477.94169741 119.47607306 479.5703691 111.96559256 481.19870239 C107.98871847 482.06093137 104.0118751 482.9233015 100.03510475 483.78600883 C96.29160581 484.59810638 92.54802539 485.40982722 88.80438232 486.22126007 C87.4309406 486.51902226 86.05752862 486.8169217 84.68414879 487.11496925 C82.80736079 487.52224363 80.93045477 487.92897407 79.05354309 488.3356781 C78.00362088 488.56336097 76.95369867 488.79104383 75.87196064 489.02562618 C74.931948 489.22599767 73.99193537 489.42636915 73.0234375 489.6328125 C72.15910819 489.82082994 71.29477888 490.00884739 70.40425777 490.20256233 C62.81089454 491.57479771 55.47185349 490.19903346 47.99511719 488.73461914 C46.91730043 488.53043586 45.83948368 488.32625257 44.72900581 488.11588192 C41.1329172 487.43265378 37.53918563 486.73774866 33.9453125 486.04296875 C31.36058849 485.54969339 28.77571508 485.05720028 26.19070435 484.56542969 C20.63036322 483.50657366 15.07113837 482.44202158 9.51263428 481.37356567 C0.71851033 479.68330689 -8.07776854 478.00444774 -16.87451172 476.32788086 C-19.13116573 475.89772063 -21.38781672 475.46754453 -23.644467 475.03736466 C-25.16404988 474.74769345 -26.68363573 474.45803786 -28.20322454 474.16839772 C-32.83873323 473.28476179 -37.47405944 472.40017547 -42.10924613 471.51485211 C-65.05556611 467.13213292 -88.00911559 462.78897568 -110.96875 458.4765625 C-111.7360355 458.33243636 -112.503321 458.18831022 -113.29385757 458.03981662 C-123.09402982 456.19906497 -132.89453597 454.36009512 -142.69517517 452.52183151 C-153.36906929 450.51976095 -164.04277535 448.51668842 -174.716272 446.51249993 C-179.12311549 445.6850707 -183.53014589 444.8586421 -187.93722534 444.0324707 C-190.20050581 443.60769437 -192.46378126 443.18289129 -194.72705078 442.75805664 C-195.72766163 442.57069978 -196.72827248 442.38334291 -197.75920486 442.19030857 C-203.84069875 441.0478565 -209.91119739 439.85789134 -215.9765625 438.6328125 C-216.13228055 431.64551112 -215.54031661 424.97609586 -214.63005066 418.05281067 C-214.41271388 416.34712615 -214.41271388 416.34712615 -214.19098645 414.60698336 C-213.7059071 410.81124633 -213.21270221 407.01661101 -212.71948242 403.22192383 C-212.36857369 400.49471898 -212.01936543 397.76729698 -211.6700592 395.03988647 C-210.81965085 388.40831124 -209.96308565 381.77754539 -209.10427972 375.14705298 C-208.40578361 369.75338584 -207.70951726 364.35943518 -207.01482582 358.96527672 C-206.91577899 358.19621246 -206.81673215 357.42714821 -206.71468389 356.63477897 C-206.51344421 355.07215064 -206.31220942 353.50952169 -206.11097948 351.94689211 C-204.2250076 337.30367238 -202.33201877 322.66136634 -200.4366338 308.01936247 C-198.81347549 295.47903053 -197.19638658 282.93792816 -195.58374023 270.39624023 C-193.70840764 255.81163856 -191.8292228 241.22754157 -189.94401437 226.6442129 C-189.74258662 225.08595163 -189.54116397 223.5276897 -189.33974648 221.96942711 C-189.24066064 221.2028652 -189.14157481 220.4363033 -189.03948637 219.64651224 C-188.34441835 214.26715628 -187.65207216 208.88745411 -186.96080589 203.50760841 C-186.11677422 196.93942156 -185.26850425 190.37179821 -184.41495415 183.80484126 C-183.98026919 180.45969152 -183.54803708 177.11427595 -183.11969376 173.76830482 C-178.55055438 138.1024273 -178.55055438 138.1024273 -174.53526878 134.35340977 C-171.93957267 132.60793876 -169.73840045 131.63291077 -166.7590332 130.70996094 C-165.74480789 130.38993103 -164.73058258 130.06990112 -163.68562317 129.74017334 C-162.60214096 129.41083801 -161.51865875 129.08150269 -160.40234375 128.7421875 C-159.28216354 128.39271057 -158.16198334 128.04323364 -157.00785828 127.6831665 C-154.64673038 126.94865694 -152.28395718 126.2194182 -149.91967773 125.49511719 C-146.28867122 124.38269262 -142.66257606 123.25533444 -139.03710938 122.125 C-136.74245637 121.41319515 -134.44754321 120.70222834 -132.15234375 119.9921875 C-131.06278885 119.65475525 -129.97323395 119.317323 -128.85066223 118.96966553 C-127.34350899 118.50853363 -127.34350899 118.50853363 -125.8059082 118.03808594 C-124.91942093 117.76591248 -124.03293365 117.49373901 -123.11958313 117.21331787 C-120.9765625 116.6328125 -120.9765625 116.6328125 -118.9765625 116.6328125 C-118.75742188 115.68664062 -118.53828125 114.74046875 -118.3125 113.765625 C-114.24500614 96.62153371 -108.47737421 80.56875414 -100.9765625 64.6328125 C-100.68668457 64.00391113 -100.39680664 63.37500977 -100.09814453 62.72705078 C-87.60497597 35.70592439 -67.59245206 10.2699143 -38.9765625 -0.3671875 C-27.37456651 -4.54458256 -11.03657889 -6.59181333 0 0 Z M-60.4140625 35.3203125 C-78.73024559 56.97411117 -90.19984081 82.54073734 -97.9765625 109.6328125 C-89.52846887 107.5937161 -81.16634484 105.34939213 -72.8515625 102.8203125 C-71.73007813 102.50255859 -70.60859375 102.18480469 -69.453125 101.85742188 C-63.45071966 100.25914231 -63.45071966 100.25914231 -59.40234375 95.98828125 C-59.26183594 94.88097656 -59.12132812 93.77367188 -58.9765625 92.6328125 C-58.57571817 91.08849428 -58.15303686 89.54976377 -57.71484375 88.015625 C-57.48667969 87.16919434 -57.25851563 86.32276367 -57.0234375 85.45068359 C-52.08667977 67.34814446 -45.09810677 50.17329021 -32.9765625 35.6328125 C-32.46738281 34.96636719 -31.95820313 34.29992187 -31.43359375 33.61328125 C-26.09185737 26.92621867 -18.63394635 21.46150442 -10.9765625 17.6328125 C-10.9765625 16.9728125 -10.9765625 16.3128125 -10.9765625 15.6328125 C-27.25011347 7.49603702 -50.01475228 23.84842768 -60.4140625 35.3203125 Z M20.0234375 29.6328125 C20.30058594 30.82132813 20.57773437 32.00984375 20.86328125 33.234375 C23.71271618 46.05944633 24.80508686 58.50918628 25.0234375 71.6328125 C32.80465692 69.61092084 40.42116458 67.24650843 48.0234375 64.6328125 C43.72128346 51.29880713 38.12731488 38.12949319 25.7109375 30.6328125 C23.03274615 29.45844564 23.03274615 29.45844564 20.0234375 29.6328125 Z M-15.5546875 44 C-28.02838108 57.30236553 -34.56194627 73.55949067 -39.9765625 90.6328125 C-37.32124251 91.96047249 -36.43502062 91.35370802 -33.63452148 90.47705078 C-32.7369664 90.19991241 -31.83941132 89.92277405 -30.91465759 89.63723755 C-29.94379715 89.32898041 -28.97293671 89.02072327 -27.97265625 88.703125 C-26.9790358 88.3933371 -25.98541534 88.08354919 -24.96168518 87.76437378 C-22.85821462 87.10697017 -20.75585974 86.44598786 -18.65454102 85.78173828 C-15.42647739 84.76173536 -12.19506255 83.75299322 -8.96289062 82.74609375 C-6.92427235 82.10743061 -4.8858539 81.46812922 -2.84765625 80.828125 C-1.38832924 80.37181198 -1.38832924 80.37181198 0.10047913 79.90628052 C0.99488205 79.62283783 1.88928497 79.33939514 2.81079102 79.04736328 C3.60195816 78.79785919 4.39312531 78.5483551 5.20826721 78.29129028 C7.01745035 77.77999432 7.01745035 77.77999432 8.0234375 76.6328125 C9.20204951 61.72200004 6.28110883 46.83193969 2.0234375 32.6328125 C-3.78125926 32.6328125 -11.42619513 40.20929337 -15.5546875 44 Z M-102.38330078 196.13671875 C-118.25613457 214.13245057 -125.93859967 238.02102091 -124.8515625 261.8828125 C-122.36594927 286.82465562 -107.17343681 301.53852533 -88.9765625 316.6328125 C-79.70424095 324.41625571 -72.60585144 331.30788035 -70.62890625 343.8359375 C-70.33733861 350.27577937 -72.31753974 355.57024366 -76.2890625 360.5078125 C-82.50165263 365.42009307 -89.34766503 365.34459958 -96.9765625 364.6328125 C-111.54654694 361.76955685 -124.4336469 353.65596482 -135.9765625 344.6328125 C-138.30960792 348.13238063 -139.39065848 351.6824981 -140.61328125 355.66015625 C-140.85697952 356.44548233 -141.1006778 357.23080841 -141.35176086 358.03993225 C-141.86449175 359.69923402 -142.37453514 361.35936829 -142.88208008 363.02026367 C-143.66110249 365.5606599 -144.45610035 368.09569313 -145.25195312 370.63085938 C-145.74838414 372.24448795 -146.24385914 373.85841101 -146.73828125 375.47265625 C-146.97778 376.230056 -147.21727875 376.98745575 -147.46403503 377.76780701 C-148.5758252 381.46303215 -149.26682393 383.96848419 -147.9765625 387.6328125 C-133.63500102 403.93561316 -110.23106148 413.24111729 -88.9765625 415.6328125 C-68.79647966 416.88576009 -49.2528578 414.39652086 -33.19067383 400.87548828 C-18.25111686 387.491289 -9.41725567 368.8271063 -7.74462891 348.86474609 C-6.5897752 327.17025455 -11.00762849 309.11904996 -25.49609375 292.30078125 C-33.5875529 283.59768424 -42.50864431 276.66054968 -52.09350586 269.69750977 C-70.66266499 256.16633524 -70.66266499 256.16633524 -72.9765625 247.6328125 C-73.87162265 241.65170471 -73.09119012 235.86803765 -69.9765625 230.6328125 C-64.22237826 223.90437485 -56.60953015 221.35222647 -47.9765625 220.6328125 C-32.82807492 219.67876029 -20.25446348 223.53356215 -5.9765625 228.6328125 C-0.0365625 210.8128125 5.9034375 192.9928125 12.0234375 174.6328125 C8.66105628 171.27043128 6.78790851 170.73815117 2.2734375 169.5078125 C0.48679687 169.00894531 0.48679687 169.00894531 -1.3359375 168.5 C-36.30161414 160.17126587 -77.48836548 169.52220964 -102.38330078 196.13671875 Z " fill="#79B259" transform="translate(255.9765625,12.3671875)"/>
<path d="M0 0 C4.56342371 0.15115609 6.51457029 0.54106171 9.88549805 3.72802734 C10.85714725 4.92025876 11.81516856 6.12368313 12.76171875 7.3359375 C13.86817937 8.64651915 14.98159553 9.95125298 16.10107422 11.25073242 C16.68403259 11.92752045 17.26699097 12.60430847 17.86761475 13.30160522 C27.49546032 24.27060707 35.58350524 31.77359335 50.55786133 33.01220703 C56.50076882 33.29633308 62.4205789 33.27794426 68.36083984 32.95776367 C72.41644229 33.00483326 75.29951183 33.30100671 79 35 C81.24757528 40.94810743 81.90932526 47.2877329 82.81239319 53.55471802 C82.9833447 54.71414032 83.15429621 55.87356262 83.33042806 57.06811893 C83.80224894 60.27470533 84.26980488 63.4818798 84.73554838 66.68935347 C85.24006982 70.1565131 85.75012032 73.62285978 86.25949097 77.08930969 C87.14270146 83.10509949 88.02242549 89.12139084 88.89979744 95.13803482 C90.17801961 103.9034408 91.46163936 112.66804988 92.7465257 121.43248115 C94.84407991 135.74123043 96.93742153 150.05059268 99.02807617 164.36035156 C101.03648028 178.10706586 103.046601 191.85352705 105.05932617 205.59960938 C105.18215291 206.43847042 105.30497964 207.27733147 105.4315284 208.14161254 C106.17196852 213.19842721 106.91248211 218.25523112 107.65302034 223.31203142 C108.75074177 230.80793215 109.84835923 238.3038481 110.94590759 245.79977417 C111.06497087 246.61292681 111.18403415 247.42607945 111.30670541 248.26387309 C112.9209476 259.28876439 114.53390494 270.31384286 116.14564946 281.33909957 C116.47441401 283.58785742 116.80325473 285.83660411 117.13212281 288.08534682 C117.34891394 289.56776133 117.56570388 291.05017601 117.78249264 292.53259087 C117.94228966 293.62527872 117.94228966 293.62527872 118.10531491 294.74004108 C118.73746231 299.06321747 119.36890582 303.38649599 119.99983894 307.70984975 C122.07915367 321.95569566 124.17344232 336.19904099 126.30872313 350.4366165 C126.94845112 354.70547384 127.58543316 358.97474217 128.22262229 363.24397912 C128.72476736 366.60569221 129.22923779 369.96702335 129.73909581 373.32757592 C130.29460697 376.9939981 130.84316486 380.66140083 131.3903656 384.32907104 C131.63695705 385.93575279 131.63695705 385.93575279 131.88853014 387.57489276 C132.70871546 393.12048101 133.17243828 398.39404691 133 404 C114.44157467 408.02511528 95.88304991 412.04977186 77.32440662 416.0738821 C68.70735336 417.94234736 60.09033273 419.81096281 51.47338867 421.67993164 C43.96304262 423.30888491 36.45263556 424.9375566 28.94215506 426.56588989 C24.96528097 427.42811887 20.9884376 428.290489 17.01166725 429.15319633 C13.26816831 429.96529388 9.52458789 430.77701472 5.78094482 431.58844757 C4.4075031 431.88620976 3.03409112 432.1841092 1.66071129 432.48215675 C-0.21607671 432.88943113 -2.09298273 433.29616157 -3.96989441 433.7028656 C-5.01981662 433.93054847 -6.06973883 434.15823133 -7.15147686 434.39281368 C-8.0914895 434.59318517 -9.03150213 434.79355665 -10 435 C-10.87073812 435.19046433 -11.74147623 435.38092867 -12.63860035 435.57716465 C-15.77543056 436.13884962 -18.82129819 436.06232749 -22 436 C-22.10635435 424.63527789 -21.87877173 413.3418814 -21.26031494 401.99407959 C-21.01588603 397.48884799 -20.789485 392.9827015 -20.5625 388.4765625 C-20.51457306 387.5284671 -20.46664612 386.5803717 -20.41726685 385.60354614 C-19.95546055 376.34419757 -19.59127191 367.08193432 -19.23751831 357.81793213 C-18.30448546 333.4143275 -17.19352296 309.02005738 -16.0625 284.625 C-15.71209282 277.06120471 -15.36184167 269.4974022 -15.01171875 261.93359375 C-14.96856663 261.0016387 -14.92541451 260.06968365 -14.88095474 259.10948753 C-14.0572914 241.31413343 -13.2519786 223.51801693 -12.46506882 205.72100067 C-12.37852701 203.76713 -12.29146271 201.8132825 -12.20437622 199.85943604 C-11.44413003 182.78826173 -10.74265962 165.71515538 -10.0625 148.640625 C-9.97729133 146.50529922 -9.89206571 144.36997411 -9.80682373 142.23464966 C-9.71935572 140.04274514 -9.63189241 137.85084043 -9.54443359 135.65893555 C-9.47816269 133.99823721 -9.47816269 133.99823721 -9.41055298 132.30398941 C-9.17969631 126.51597609 -8.94953949 120.72793617 -8.72052002 114.93984985 C-8.19353132 101.64289753 -7.6535074 88.34661093 -7.08745766 75.05125904 C-6.82476956 68.87037137 -6.5692254 62.68933885 -6.328125 56.50756836 C-6.08838378 50.36730465 -5.83145666 44.22797914 -5.56254196 38.08892632 C-5.46477328 35.79004362 -5.37302594 33.49089568 -5.28776932 31.19151497 C-5.16873461 28.00832597 -5.02758907 24.82681485 -4.88134766 21.64477539 C-4.85211716 20.7249437 -4.82288666 19.805112 -4.79277039 18.85740662 C-4.4450018 12.03239415 -2.61434282 6.29419517 0 0 Z " fill="#4C822A" transform="translate(339,67)"/>
<path d="M0 0 C11.2862465 0.37453347 22.56703664 0.81300786 33.8125 1.875 C35.01096558 1.97433838 35.01096558 1.97433838 36.23364258 2.07568359 C38.45703125 2.3046875 38.45703125 2.3046875 42 3 C44.07723617 6.11585426 44.44083533 7.6578242 44.98025322 11.28423882 C45.14722419 12.38151133 45.31419515 13.47878385 45.48622584 14.60930705 C45.66164259 15.81419001 45.83705934 17.01907297 46.01779175 18.26046753 C46.20845443 19.52843272 46.39911711 20.79639792 46.59555745 22.1027863 C47.12078981 25.59733015 47.6365249 29.09321828 48.15060416 32.58941785 C48.70063195 36.31908259 49.25924252 40.04746251 49.81675529 43.77601433 C50.87196296 50.8426815 51.91910265 57.91051886 52.96271899 64.9789063 C53.73760489 70.2267297 54.51497327 75.47417759 55.29465485 80.72129059 C58.22595377 100.45032399 61.13639641 120.18238985 64.03835851 139.91575795 C64.62292823 143.8904373 65.20778479 147.86507444 65.79259872 151.83971786 C67.74317897 165.09748728 69.69308916 178.35535497 71.64082527 191.61354256 C72.13587097 194.98324782 72.63091885 198.35295276 73.12597656 201.72265625 C73.24891798 202.55948479 73.3718594 203.39631334 73.49852632 204.25850032 C75.51470809 217.98115517 77.53588439 231.7030698 79.55898763 245.42470576 C81.65638686 259.6507991 83.74947365 273.87752161 85.83828628 288.10487831 C87.00340595 296.04003046 88.17037513 303.97490055 89.34222794 311.90906143 C90.33260682 318.61461493 91.31908482 325.32072748 92.30043299 332.02760883 C92.79986023 335.44004487 93.30113052 338.85218278 93.8074398 342.26360512 C94.35522231 345.96120477 94.89591924 349.65977376 95.43484497 353.3586731 C95.59533455 354.43039831 95.75582413 355.50212353 95.92117703 356.60632527 C96.71894756 362.13810429 97.16707333 367.41094465 97 373 C88.03858902 374.95819344 79.07669644 376.91416307 70.1141758 378.86727142 C65.95282927 379.77418385 61.79165466 380.6818702 57.63085938 381.59130859 C53.61773724 382.46844007 49.60418143 383.34356034 45.59031296 384.2172699 C44.05670834 384.55146742 42.52326315 384.88639738 40.98997879 385.22206116 C38.84741119 385.69097884 36.70429871 386.15732212 34.56103516 386.62304688 C33.33969879 386.88952026 32.11836243 387.15599365 30.86001587 387.43054199 C28 388 28 388 26 388 C24.54186788 367.15158729 23.32578171 346.2984314 22.24609494 325.42740643 C22.02821553 321.22514723 21.80777709 317.02302204 21.58770752 312.82087708 C21.15966512 304.63981503 20.73394828 296.45863368 20.30915557 288.27740232 C19.96382684 281.62724059 19.61767764 274.97712203 19.27096939 268.32703209 C19.22128387 267.37399775 19.17159835 266.42096341 19.1204072 265.43904924 C19.01942533 263.50211625 18.91844239 261.56518332 18.81745841 259.62825044 C17.87582695 241.56509636 16.93695592 223.50179961 15.99899425 205.43845465 C15.1418024 188.93214169 14.28129851 172.42600334 13.41923164 155.91994432 C12.5310572 138.91349808 11.64499131 121.90694321 10.76125252 104.90026587 C10.26623183 95.37473147 9.77040561 85.84924073 9.27239609 76.32386208 C8.84936856 68.23214536 8.42835456 60.14032691 8.00991736 52.04837147 C7.79665914 47.92530625 7.58249835 43.80229333 7.36584091 39.67940521 C7.16730942 35.90097102 6.97144587 32.12240801 6.77764584 28.34372827 C6.67425902 26.34102971 6.56808684 24.33847553 6.46179187 22.33592921 C6.09970276 15.21607907 5.91186875 8.12900373 6 1 C4.02 1 2.04 1 0 1 C0 0.67 0 0.34 0 0 Z " fill="#55932C" transform="translate(375,98)"/>
<path d="M0 0 C2.16146399 1.74419295 3.79547867 3.63897258 5.5859375 5.7578125 C9.94325232 10.50559953 14.57973227 10.79087307 20.66650391 11.63476562 C33.92091825 13.50543028 43.09414084 21.23416547 51.1484375 31.6953125 C54.31046165 36.25480964 56.94667887 41.00905642 59.4609375 45.9453125 C59.80334473 46.61506104 60.14575195 47.28480957 60.49853516 47.97485352 C62.39783656 51.85618188 63.5447314 55.28400353 64.0234375 59.6328125 C58.86326472 62.62028095 53.82509489 63.65822578 48.0234375 64.6328125 C47.58773437 63.66601562 47.15203125 62.69921875 46.703125 61.703125 C39.58296882 45.12439636 39.58296882 45.12439636 27.0234375 32.6328125 C25.04329318 31.90929823 23.04522435 31.23015861 21.0234375 30.6328125 C21.4565625 32.28990234 21.4565625 32.28990234 21.8984375 33.98046875 C25.07182919 46.97242485 25.49100757 59.30167045 25.0234375 72.6328125 C22.75394648 73.30436599 20.4830414 73.9702088 18.2109375 74.6328125 C16.31408203 75.1896875 16.31408203 75.1896875 14.37890625 75.7578125 C11.0234375 76.6328125 11.0234375 76.6328125 8.0234375 76.6328125 C7.96397949 75.72909912 7.96397949 75.72909912 7.90332031 74.80712891 C7.06634702 62.62477459 5.77855652 50.91497601 2.828125 39.0546875 C2.0234375 35.6328125 2.0234375 35.6328125 2.0234375 32.6328125 C-18.21936809 44.87524456 -30.5336747 61.94981647 -36.81103516 84.73071289 C-38.40278513 90.14903942 -38.40278513 90.14903942 -41.16796875 92.48046875 C-44.64534292 93.90720781 -48.14739859 95.17897989 -51.7265625 96.3203125 C-52.75330078 96.65772461 -52.75330078 96.65772461 -53.80078125 97.00195312 C-58.80737082 98.6328125 -58.80737082 98.6328125 -59.9765625 98.6328125 C-59.49809055 91.94386241 -58.48708594 85.73698366 -56.5390625 79.3203125 C-56.2817334 78.47218994 -56.0244043 77.62406738 -55.75927734 76.75024414 C-51.18599521 62.40055238 -44.74453994 48.19609014 -34.9765625 36.6328125 C-34.30367188 35.78847656 -33.63078125 34.94414063 -32.9375 34.07421875 C-27.22655786 27.25223878 -20.59209072 22.15623959 -12.9765625 17.6328125 C-12.3165625 17.6328125 -11.6565625 17.6328125 -10.9765625 17.6328125 C-10.9765625 16.9728125 -10.9765625 16.3128125 -10.9765625 15.6328125 C-26.05332185 14.81907436 -40.09627808 18.00374314 -51.765625 28.1953125 C-52.85825196 29.31988762 -53.92183754 30.47261504 -54.9765625 31.6328125 C-55.6365625 31.6328125 -56.2965625 31.6328125 -56.9765625 31.6328125 C-57.36328125 32.50679687 -57.36328125 32.50679687 -57.7578125 33.3984375 C-59.0773327 35.81755787 -60.55440178 37.41338553 -62.4765625 39.3828125 C-76.83267131 55.27336048 -87.0407388 77.6040957 -93.34765625 97.93359375 C-93.56139893 98.61929443 -93.7751416 99.30499512 -93.99536133 100.01147461 C-94.56481843 101.88680715 -95.10380235 103.77131632 -95.640625 105.65625 C-97.25803059 109.25994316 -98.40604903 110.0470399 -101.9765625 111.6328125 C-104.14040547 112.44855746 -106.33060162 113.19698687 -108.5390625 113.8828125 C-109.65410156 114.23859375 -110.76914063 114.594375 -111.91796875 114.9609375 C-114.94635043 115.62617588 -116.11621105 115.48987556 -118.9765625 114.6328125 C-109.65868184 82.88910009 -98.57113654 50.62322228 -75.9765625 25.6328125 C-75.53618652 25.14329102 -75.09581055 24.65376953 -74.64208984 24.14941406 C-58.13545237 6.04091507 -24.50281997 -14.63479008 0 0 Z " fill="#4C7C2D" transform="translate(255.9765625,12.3671875)"/>
<path d="M0 0 C0 1.32 0 2.64 0 4 C-0.67804688 4.32871094 -1.35609375 4.65742188 -2.0546875 4.99609375 C-9.39899335 8.74962402 -15.17717147 13.17717147 -21 19 C-21.60328125 19.60328125 -22.2065625 20.2065625 -22.828125 20.828125 C-29.60034145 28.10667539 -35.34646037 36.96509926 -40.03125 45.71875 C-45.33465879 55.36921518 -45.33465879 55.36921518 -51.8125 57.5625 C-52.72644531 57.77003906 -53.64039063 57.97757813 -54.58203125 58.19140625 C-57.72491114 59.24241778 -58.44494635 60.0720161 -60 63 C-60.86627741 65.83935879 -61.44105906 68.71144006 -62 71.625 C-62.17096191 72.47328369 -62.34192383 73.32156738 -62.51806641 74.19555664 C-63.5876894 79.59229085 -64.51273058 85.00444515 -65.375 90.4375 C-66.53743561 97.74894665 -68.03437542 104.95796574 -69.625 112.1875 C-72.94355278 127.29550773 -75.81333609 142.48410501 -78.66455078 157.6862793 C-80.69457654 168.46414037 -82.87214878 179.19411952 -85.2325592 189.90464783 C-86.94939741 197.70621271 -88.51511081 205.52561623 -90 213.375 C-90.50897635 216.03803699 -91.02015195 218.70065076 -91.53125 221.36328125 C-91.77875 222.65443848 -92.02625 223.9455957 -92.28125 225.27587891 C-93.92092798 233.77168323 -95.63684886 242.25236471 -97.34375 250.73486328 C-98.56724401 256.8222922 -99.78295163 262.91127979 -101 269 C-101.50647925 271.53255832 -102.0129894 274.06511045 -102.51953125 276.59765625 C-102.76654785 277.83273926 -103.01356445 279.06782227 -103.26806641 280.34033203 C-106.17871094 294.89355469 -109.08935547 309.44677734 -112 324 C-112.33 324 -112.66 324 -113 324 C-112.39003707 310.12064785 -110.5081361 296.40946204 -108.72119141 282.64233398 C-108.38071155 279.99296749 -108.04058819 277.34355737 -107.70088196 274.6940918 C-106.87709914 268.27601951 -106.0483629 261.85859654 -105.21773054 255.44140749 C-104.54212726 250.22135639 -103.86824913 245.00108527 -103.19556808 239.78065681 C-103.0994321 239.03460839 -103.00329612 238.28855996 -102.90424692 237.51990401 C-102.70888821 236.00382057 -102.51353195 234.48773682 -102.3181781 232.97165275 C-100.49084606 218.7920721 -98.65769749 204.61324804 -96.82265405 190.4346636 C-95.14749298 177.49011478 -93.47916647 164.5446961 -91.8141336 151.59884094 C-90.09983405 138.27035024 -88.38118036 124.9424278 -86.65774858 111.61511475 C-86.46251354 110.10525317 -86.26728513 108.59539073 -86.07206345 107.08552742 C-85.97603671 106.34284832 -85.88000998 105.60016923 -85.78107334 104.8349847 C-85.10796215 99.62689003 -84.43764902 94.41843975 -83.76848221 89.20983696 C-82.9518774 82.85406861 -82.13108495 76.49885758 -81.30504824 70.1443079 C-80.88452924 66.90848583 -80.46646486 63.67238156 -80.05229759 60.43573952 C-75.57480304 25.47050781 -75.57480304 25.47050781 -71.55365944 21.7156744 C-69.00836328 20.00561886 -66.87753408 19.03924126 -63.95703125 18.140625 C-62.97831055 17.83350586 -61.99958984 17.52638672 -60.99121094 17.20996094 C-59.41774902 16.73478027 -59.41774902 16.73478027 -57.8125 16.25 C-56.7184082 15.91000977 -55.62431641 15.57001953 -54.49707031 15.21972656 C-51.00117736 14.1360296 -47.5007714 13.0678196 -44 12 C-41.67546681 11.28226758 -39.35124442 10.56352777 -37.02734375 9.84375 C-31.7176015 8.20163163 -26.40589009 6.56637093 -21.08789062 4.95117188 C-18.8941981 4.27544243 -16.70587034 3.58218722 -14.52148438 2.87695312 C-13.37486328 2.51021484 -12.22824219 2.14347656 -11.046875 1.765625 C-10.00885742 1.42821289 -8.97083984 1.09080078 -7.90136719 0.74316406 C-5.12544163 0.03213096 -2.84844991 -0.14812464 0 0 Z " fill="#94C574" transform="translate(153,125)"/>
<path d="M0 0 C0.66 0.33 1.32 0.66 2 1 C-3.61 6.61 -9.22 12.22 -15 18 C-15 13.78193333 -13.14807199 12.61332709 -10.3125 9.5625 C-9.44238281 8.61503906 -8.57226562 7.66757812 -7.67578125 6.69140625 C-5.23784139 4.23923024 -2.74711696 2.0937486 0 0 Z " fill="#5B8D3B" transform="translate(235,35)"/>
</svg>
